PathFileType	4	(X/Y/Z)	pose_F01_0-96.trc
DataRate	CameraRate	NumFrames	NumMarkers	Units	OrigDataRate	OrigDataStartFrame	OrigNumFrames
30	30	6	21	m	30	60	96
Frame#	Time	CHip			RHip			RKnee			RAnkle			RBigToe			RSmallToe			RHeel			LHip			LKnee			LAnkle			LBigToe			LSmallToe			LHeel			Neck			Nose			RShoulder			RElbow			RWrist			LShoulder			LElbow			LWrist			
		X1	Y1	Z1	X2	Y2	Z2	X3	Y3	Z3	X4	Y4	Z4	X5	Y5	Z5	X6	Y6	Z6	X7	Y7	Z7	X8	Y8	Z8	X9	Y9	Z9	X10	Y10	Z10	X11	Y11	Z11	X12	Y12	Z12	X13	Y13	Z13	X14	Y14	Z14	X15	Y15	Z15	X16	Y16	Z16	X17	Y17	Z17	X18	Y18	Z18	X19	Y19	Z19	X20	Y20	Z20	X21	Y21	Z21	
60	2.0	-0.2592588145053341	1.8801301917208189	-0.4925145169749793	-0.268326430786364	1.8766629525245595	-0.419703456895005	-0.25852338429686733	1.7207690729818041	-0.37332436197994634	-0.2295423504464595	1.5651530248106078	-0.4475074485727219	-0.2585302240289419	1.5237095425407883	-0.447849993645157	-0.2557138992844674	1.5314121090978758	-0.42455959056682596	-0.2234731090876977	1.558611322005674	-0.4672944854519867	-0.24853079144258056	1.885044280413059	-0.5653169567464876	-0.23892169419124773	1.7188344144486136	-0.6044357247363412	-0.21103069056317583	1.5539022220689602	-0.6707787970977126	-0.3279307812323141	1.4810122901645582	-1.0269053708749103	-0.31138753417382914	1.483373116522891	-1.0511696591685427	-0.20340143868745264	1.5424980421118042	-0.6648938549371505	-0.24935769023697402	2.059645752923353	-0.49079373863602904	-0.27008235125594215	2.1284378451017663	-0.499480348546744	-0.26069822072762566	2.057801696917324	-0.39653501480179176	-0.24261805033724718	1.9991684968390961	-0.3097229174368524	-1.9228404614448904	1.920167751307448	1.7050817725164173	-0.2342814520363489	2.0625951542288328	-0.5897648935150718	-0.21493013443975603	1.9778592537192938	-0.6331636027185673	-1.2706442082343619	1.834930604251557	0.3973405853002722
61	2.033333333333333	-0.26314258149122666	1.8825278195410842	-0.47978003746416314	-0.272091106940721	1.877721037863346	-0.4068612480853615	-0.2595540648831642	1.72016701922558	-0.3672289248122271	-0.2295423504464595	1.5651530248106078	-0.4475074485727219	-0.2585302240289419	1.5237095425407883	-0.447849993645157	-0.2557138992844674	1.5314121090978758	-0.42455959056682596	-0.2234731090876977	1.558611322005674	-0.4672944854519867	-0.2506792104702776	1.8873879537467975	-0.5545456017064796	-0.23910432347257116	1.7170537530563978	-0.6039424086794204	-0.21072193010768997	1.5552049280066467	-0.6712711805852823	-0.3258399774206281	1.4816528071087216	-1.031128752378288	-0.311353286121196	1.484715031469934	-1.0509723761565057	-0.2032936641355295	1.545328048541689	-0.6651319303404174	-0.25034745214477383	2.0589775711155585	-0.4767306642218596	-0.2710878965717013	2.1274229072778135	-0.5020059093050608	-0.26107679401511547	2.0555337714405955	-0.3743399828395162	-2.167017194687755	1.9075215220533734	1.9477182036862892	-1.646527500828181	1.912165512634757	1.3725882044923363	-0.23481853816427128	2.060885343737767	-0.5728594477840906	-0.22283248075817172	1.9716740208961456	-0.6113006767899116	-0.22685244668407534	1.8914570885459365	-0.6698327689909485
62	2.066666666666667	-0.25729050041056656	1.8784862497284065	-0.4683234911959186	-0.2690197496458576	1.8735301589196252	-0.3962203354520878	-0.25797503821803375	1.7149849071048615	-0.3545519282004381	-0.2295423504464595	1.5651530248106078	-0.4475074485727219	-0.2585302240289419	1.5237095425407883	-0.447849993645157	-0.2557138992844674	1.5314121090978758	-0.42455959056682596	-0.2234731090876977	1.558611322005674	-0.4672944854519867	-0.24596302243711968	1.8820705834208418	-0.5464301167850736	-0.2405228088567648	1.7159622930393348	-0.5980263080508471	-0.21127342276268052	1.5553867620011952	-0.6702941185285093	-0.32581363973331956	1.481632710084715	-1.0311846944952907	-0.31137055940827474	1.4833885626762728	-1.051208376978002	-0.2027429489764736	1.5443037999006268	-0.6612219138978596	-0.24839728987204227	2.0562033791379077	-0.46993827142275113	-0.27401052985274915	2.129651279411122	-0.4959978072533282	-0.2598305633044233	2.051259076416244	-0.36904022099828376	-1.785977134470249	1.9179235232536536	1.4899689386382216	-1.3702145402114718	1.904163273962066	1.040094636468255	-0.2358450064343606	2.0607677126745383	-0.5678391446537666	-0.22605491756148097	1.9701973284278425	-0.6033767559204095	-0.2232802486942401	1.885297977437436	-0.6593001449294598
63	2.1	-0.2590193847022567	1.8752893005996318	-0.456748089773097	-0.2712028785570192	1.87149198604639	-0.3794021629158118	-0.2567731497012166	1.7115440117011358	-0.35067360843192036	-0.2295423504464595	1.5651530248106078	-0.4475074485727219	-0.2585302240289419	1.5237095425407883	-0.447849993645157	-0.2557138992844674	1.5314121090978758	-0.42455959056682596	-0.2234731090876977	1.558611322005674	-0.4672944854519867	-0.2480141127185531	1.8784856874040832	-0.5349402000560121	-0.23947312477409857	1.7114668122414347	-0.594319822874114	-0.21250371398111786	1.5550878478578893	-0.6648070021593651	-0.32435342713367277	1.4829639371519947	-1.0148341201030016	-0.31179989164609373	1.4862142336725557	-1.0413597703599278	-0.20400177511279174	1.5440601088905985	-0.6556414748038086	-0.24942587967307353	2.0562933228653884	-0.47307288051817264	-0.2739375138239362	2.1295033890164516	-0.4876043102691958	-0.25988850741937564	2.0528130231195116	-0.3698297478852791	-1.404937074252743	1.9283255244539337	1.032219673590154	-1.0939015795947624	1.8961610352893747	0.707601068444174	-0.23675484184462375	2.0608408887833085	-0.5707347847956327	-0.22418304600009423	1.9679361305696301	-0.6054733659578003	-0.2217017269983448	1.881506503182641	-0.6521617281044211
64	2.1333333333333333	-0.25915767085083036	1.878306266109591	-0.4572648280812956	-0.2715111267061528	1.8733100918851773	-0.3798268398018192	-0.25577387399076307	1.7190145154061887	-0.34804472830232314	-0.2295423504464595	1.5651530248106078	-0.4475074485727219	-0.2585302240289419	1.5237095425407883	-0.447849993645157	-0.2557138992844674	1.5314121090978758	-0.42455959056682596	-0.2234731090876977	1.558611322005674	-0.4672944854519867	-0.24717603220879325	1.8815446260825046	-0.532398043034118	-0.238329790012887	1.7167325606733164	-0.5917956860825853	-0.21321973388254256	1.5548685081687268	-0.6603012028137434	-0.32524496712652345	1.4838209984699355	-1.017659065281672	-0.31056328068683964	1.4865237467051413	-1.047593564627116	-0.20483840117468033	1.544627403221738	-0.6508623317850959	-0.24940333878616364	2.056190178105076	-0.4732864271301022	-0.27473906838135853	2.13091306576585	-0.48312044677116867	-0.2609943434383463	2.0504085645513634	-0.37243182292880284	-1.0238970140352368	1.938727525654214	0.5744704085420866	-0.817588618978053	1.8881587966166837	0.375107500420093	-0.2347167124233123	2.0608999561384844	-0.5731038275655747	-0.2263189502998446	1.9678977328129799	-0.603206673107008	-0.2235822100519926	1.8785017893201805	-0.6379373088365837
65	2.1666666666666665	-0.2566010951958618	1.8733830353602203	-0.4641547801766077	-0.2689515920809833	1.8696631973168203	-0.38679440782462443	-0.2564260995782479	1.718109832153454	-0.35651892593784174	-0.2295423504464595	1.5651530248106078	-0.4475074485727219	-0.2585302240289419	1.5237095425407883	-0.447849993645157	-0.2557138992844674	1.5314121090978758	-0.42455959056682596	-0.2234731090876977	1.558611322005674	-0.4672944854519867	-0.24423204830395975	1.8780078755492557	-0.5395426318355537	-0.2412646066609941	1.7156642800854578	-0.5927963934241112	-0.2143921047956111	1.5550886353171995	-0.659478453972292	-0.3243274597828919	1.4817232072622444	-1.0138819772979812	-0.31184888604637157	1.4861903545983042	-1.0412131808720295	-0.20391259514534493	1.5429857731500976	-0.6516291244576469	-0.24950489128704526	2.056583573101972	-0.48174393773744906	-0.274737695661884	2.1308048880682917	-0.483165279509682	-0.2614981557164811	2.0515052701292924	-0.3814792375009648	-0.6428569538177307	1.9491295268544941	0.11672114349401896	-0.5412756583613438	1.8801565579439927	0.042613932396011744	-0.232508855746493	2.061207792467323	-0.5835642106515706	-0.22616869700373973	1.9663845967792954	-0.6028099149551254	-0.2248321096967444	1.8782902515192423	-0.6325139665340116
